HIERARCHY
ROOT hips
{
  OFFSET 0 9.313263304106702 1.2146308026317778
  CHANNELS 6 Xposition Yposition Zposition Yrotation Xrotation Zrotation
  JOINT spine
  {
    OFFSET -6.402521e-31 0.5173342420023708 0
    CHANNELS 3 Yrotation Xrotation Zrotation
    JOINT chest
    {
      OFFSET 0 1.130544299341115 0
      CHANNELS 3 Yrotation Xrotation Zrotation
      JOINT upperChest
      {
        OFFSET 0 1.0863555061129995 0
        CHANNELS 3 Yrotation Xrotation Zrotation
        JOINT neck
        {
          OFFSET 0 1.3773706506454462 0
          CHANNELS 3 Yrotation Xrotation Zrotation
          JOINT head
          {
            OFFSET 0 0.7374408940073979 0
            CHANNELS 3 Yrotation Xrotation Zrotation
            JOINT leftEye
            {
              OFFSET 0.25066580148932727 0.6408406698778757 0.15963719178883284
              CHANNELS 3 Yrotation Xrotation Zrotation
              End Site
              {
                OFFSET 0.25066580148932727 0.6408406698778757 0.15963719178883284
              }
            }
            JOINT rightEye
            {
              OFFSET -0.25066576739704244 0.6408406384191823 0.15963727561643756
              CHANNELS 3 Yrotation Xrotation Zrotation
              End Site
              {
                OFFSET -0.25066576739704244 0.6408406384191823 0.15963727561643756
              }
            }
          }
        }
        JOINT leftShoulder
        {
          OFFSET 0.3761817444281191 1.0539491987447769 0
          CHANNELS 3 Yrotation Xrotation Zrotation
          JOINT leftUpperArm
          {
            OFFSET 0.8702844380000002 0 0
            CHANNELS 3 Yrotation Xrotation Zrotation
            JOINT leftLowerArm
            {
              OFFSET 2.198527310000323 0 0
              CHANNELS 3 Yrotation Xrotation Zrotation
              JOINT leftHand
              {
                OFFSET 2.146852313968281 0 0
                CHANNELS 3 Yrotation Xrotation Zrotation
                JOINT leftIndexProximal
                {
                  OFFSET 0.6585177834681599 0.07380250427007962 0.18382213159631788
                  CHANNELS 3 Yrotation Xrotation Zrotation
                  JOINT leftIndexIntermediate
                  {
                    OFFSET 0.3323021288626682 -0.009606893929485771 -0.012820872253340998
                    CHANNELS 3 Yrotation Xrotation Zrotation
                    JOINT leftIndexDistal
                    {
                      OFFSET 0.2045908926985518 -0.0071133989147997845 -0.006828784783599051
                      CHANNELS 3 Yrotation Xrotation Zrotation
                      End Site
                      {
                        OFFSET 0.2045908926985518 -0.0071133989147997845 -0.006828784783599051
                      }
                    }
                  }
                }
                JOINT leftLittleProximal
                {
                  OFFSET 0.6110054258835662 0.07380246363125398 -0.29175655876064077
                  CHANNELS 3 Yrotation Xrotation Zrotation
                  JOINT leftLittleIntermediate
                  {
                    OFFSET 0.3144281999999998 -2.5124724523095665e-9 1.8658118799974588e-7
                    CHANNELS 3 Yrotation Xrotation Zrotation
                    JOINT leftLittleDistal
                    {
                      OFFSET 0.18116185580251631 0.002815456192251098 0.0034826415518049436
                      CHANNELS 3 Yrotation Xrotation Zrotation
                      End Site
                      {
                        OFFSET 0.18116185580251631 0.002815456192251098 0.0034826415518049436
                      }
                    }
                  }
                }
                JOINT leftMiddleProximal
                {
                  OFFSET 0.6637478005691111 0.07380246480054087 0.02046981859247815
                  CHANNELS 3 Yrotation Xrotation Zrotation
                  JOINT leftMiddleIntermediate
                  {
                    OFFSET 0.3705733999999994 -2.9611069152224445e-9 9.35054791928458e-8
                    CHANNELS 3 Yrotation Xrotation Zrotation
                    JOINT leftMiddleDistal
                    {
                      OFFSET 0.22861063500000056 -1.82673876025774e-9 -1.6740782024515788e-7
                      CHANNELS 3 Yrotation Xrotation Zrotation
                      End Site
                      {
                        OFFSET 0.22861063500000056 -1.82673876025774e-9 -1.6740782024515788e-7
                      }
                    }
                  }
                }
                JOINT leftRingProximal
                {
                  OFFSET 0.6561845547265777 0.07380246406440083 -0.13588087571513918
                  CHANNELS 3 Yrotation Xrotation Zrotation
                  JOINT leftRingIntermediate
                  {
                    OFFSET 0.3437531000000005 -2.746796123886952e-9 1.4935781944558357e-7
                    CHANNELS 3 Yrotation Xrotation Zrotation
                    JOINT leftRingDistal
                    {
                      OFFSET 0.1983118991198174 -0.002467117924596085 -0.004538141969590015
                      CHANNELS 3 Yrotation Xrotation Zrotation
                      End Site
                      {
                        OFFSET 0.1983118991198174 -0.002467117924596085 -0.004538141969590015
                      }
                    }
                  }
                }
                JOINT leftThumbProximal
                {
                  OFFSET 0.09767004258864787 -0.14930060425447422 -0.07008212897521154
                  CHANNELS 3 Yrotation Xrotation Zrotation
                  JOINT leftThumbIntermediate
                  {
                    OFFSET 0.36682123028154767 -0.015768465060082004 0.28693641268151077
                    CHANNELS 3 Yrotation Xrotation Zrotation
                    JOINT leftThumbDistal
                    {
                      OFFSET 0.21091084272403915 -0.016756648201192714 0.1933767059105508
                      CHANNELS 3 Yrotation Xrotation Zrotation
                      End Site
                      {
                        OFFSET 0.21091084272403915 -0.016756648201192714 0.1933767059105508
                      }
                    }
                  }
                }
              }
            }
          }
        }
        JOINT rightShoulder
        {
          OFFSET -0.37618174442811925 1.0539491987447769 0
          CHANNELS 3 Yrotation Xrotation Zrotation
          JOINT rightUpperArm
          {
            OFFSET -0.870284438 0 0
            CHANNELS 3 Yrotation Xrotation Zrotation
            JOINT rightLowerArm
            {
              OFFSET -2.1985273100003235 0 0
              CHANNELS 3 Yrotation Xrotation Zrotation
              JOINT rightHand
              {
                OFFSET -2.1468523139682802 0 0
                CHANNELS 3 Yrotation Xrotation Zrotation
                JOINT rightIndexProximal
                {
                  OFFSET -0.6585177834681599 0.07380250427007962 0.18382213159631788
                  CHANNELS 3 Yrotation Xrotation Zrotation
                  JOINT rightIndexIntermediate
                  {
                    OFFSET -0.3323021288626682 -0.009606893929485771 -0.012820872253340998
                    CHANNELS 3 Yrotation Xrotation Zrotation
                    JOINT rightIndexDistal
                    {
                      OFFSET -0.2045908926985518 -0.0071133989147997845 -0.006828784783599051
                      CHANNELS 3 Yrotation Xrotation Zrotation
                      End Site
                      {
                        OFFSET -0.2045908926985518 -0.0071133989147997845 -0.006828784783599051
                      }
                    }
                  }
                }
                JOINT rightLittleProximal
                {
                  OFFSET -0.6110054258835662 0.07380246363125398 -0.29175655876064077
                  CHANNELS 3 Yrotation Xrotation Zrotation
                  JOINT rightLittleIntermediate
                  {
                    OFFSET -0.3144281999999998 -2.5124724523095665e-9 1.8658118799974588e-7
                    CHANNELS 3 Yrotation Xrotation Zrotation
                    JOINT rightLittleDistal
                    {
                      OFFSET -0.18116185580251631 0.002815456192251098 0.0034826415518049436
                      CHANNELS 3 Yrotation Xrotation Zrotation
                      End Site
                      {
                        OFFSET -0.18116185580251631 0.002815456192251098 0.0034826415518049436
                      }
                    }
                  }
                }
                JOINT rightMiddleProximal
                {
                  OFFSET -0.6637478005691111 0.07380246480054087 0.02046981859247815
                  CHANNELS 3 Yrotation Xrotation Zrotation
                  JOINT rightMiddleIntermediate
                  {
                    OFFSET -0.3705733999999994 -2.9611069152224445e-9 9.35054791928458e-8
                    CHANNELS 3 Yrotation Xrotation Zrotation
                    JOINT rightMiddleDistal
                    {
                      OFFSET -0.22861063500000056 -1.82673876025774e-9 -1.6740782024515788e-7
                      CHANNELS 3 Yrotation Xrotation Zrotation
                      End Site
                      {
                        OFFSET -0.22861063500000056 -1.82673876025774e-9 -1.6740782024515788e-7
                      }
                    }
                  }
                }
                JOINT rightRingProximal
                {
                  OFFSET -0.6561845547265777 0.07380246406440083 -0.13588087571513918
                  CHANNELS 3 Yrotation Xrotation Zrotation
                  JOINT rightRingIntermediate
                  {
                    OFFSET -0.3437531000000005 -2.746796123886952e-9 1.4935781944558357e-7
                    CHANNELS 3 Yrotation Xrotation Zrotation
                    JOINT rightRingDistal
                    {
                      OFFSET -0.1983118991198174 -0.002467117924596085 -0.004538141969590015
                      CHANNELS 3 Yrotation Xrotation Zrotation
                      End Site
                      {
                        OFFSET -0.1983118991198174 -0.002467117924596085 -0.004538141969590015
                      }
                    }
                  }
                }
                JOINT rightThumbProximal
                {
                  OFFSET -0.09767004258864787 -0.14930060425447422 -0.07008212897521154
                  CHANNELS 3 Yrotation Xrotation Zrotation
                  JOINT rightThumbIntermediate
                  {
                    OFFSET -0.36682123028154767 -0.015768465060082004 0.28693641268151077
                    CHANNELS 3 Yrotation Xrotation Zrotation
                    JOINT rightThumbDistal
                    {
                      OFFSET -0.21091084272403915 -0.016756648201192714 0.1933767059105508
                      CHANNELS 3 Yrotation Xrotation Zrotation
                      End Site
                      {
                        OFFSET -0.21091084272403915 -0.016756648201192714 0.1933767059105508
                      }
                    }
                  }
                }
              }
            }
          }
        }
      }
    }
  }
  JOINT leftUpperLeg
  {
    OFFSET 0.7715603 -0.3993844658041501 0
    CHANNELS 3 Yrotation Xrotation Zrotation
    JOINT leftLowerLeg
    {
      OFFSET 0 -3.529830000249343 0
      CHANNELS 3 Yrotation Xrotation Zrotation
      JOINT leftFoot
      {
        OFFSET 0 -4.154939295409685 0.004208579085223096
        CHANNELS 3 Yrotation Xrotation Zrotation
        JOINT leftToes
        {
          OFFSET 0 -0.6353414391261847 1.10414981190622
          CHANNELS 3 Yrotation Xrotation Zrotation
          End Site
          {
            OFFSET 0 -0.6015820691747853 1.10414981190622
          }
        }
      }
    }
  }
  JOINT rightUpperLeg
  {
    OFFSET -0.7715603 -0.3993844658041501 0
    CHANNELS 3 Yrotation Xrotation Zrotation
    JOINT rightLowerLeg
    {
      OFFSET 0 -3.529830000249343 0
      CHANNELS 3 Yrotation Xrotation Zrotation
      JOINT rightFoot
      {
        OFFSET 0 -4.154939295409685 0.004208579085223096
        CHANNELS 3 Yrotation Xrotation Zrotation
        JOINT rightToes
        {
          OFFSET 0 -0.6353414391261847 1.10414981190622
          CHANNELS 3 Yrotation Xrotation Zrotation
          End Site
          {
            OFFSET 0 -0.6015820691747853 1.10414981190622
          }
        }
      }
    }
  }
}
MOTION
Frames: 4
Frame Time: 0.03333333333333333
1.8804071166298604 8.677822459827768 1.227054461205947 -4.771894517547459 0.44984461556876904 -0.2385336078072658 1.0649227008720692 4.621194611631968 -1.739151542500448 1.3603643166855668 3.573779674950735 2.933915234221748 0 0 0 -2.224738627475528 -6.8417833203387 1.1174139768535976 1.2225113510425127 32.62361284508688 -0.6214524416396241 0 0 0 0 0 0 -23.894416022185133 2.1551908328024663 -7.035580991981741 -42.12549458901738 33.60492213747596 -99.51737305856304 -56.35551631068635 -0.00006943855863753919 0.000013367479074743163 -7.71328867024153 22.297923920513732 -8.206554602718125 4.666383623798568 0.3377412834193466 -7.81654282944684 2.8352058848727437 0.389025244467515 -20.547109572649482 0.8092499143591912 0.03451767039954283 -10.169318836587857 16.293303834185007 5.494325703532987 -35.378853902828006 3.9918045137685345 1.5251629556050068 -45.54374426781473 2.8330028759133126 0.5568625639757905 -20.498789335160946 8.766897726356486 0.9009363029498123 -15.692652533130017 3.994243525852239 0.9161708208422816 -33.33647876819724 1.4912675140664156 0.17076442693201294 -12.259971802115002 11.684953700979026 2.503230527122379 -26.391617397775 3.888345533094482 1.7071647783633606 -40.09945889513481 1.8351167946303228 0.5448145139689868 -19.32670125169232 0.21223703739153874 18.639546399065722 11.135308150414007 31.896633039057658 0.8128006162756795 -2.731585071611003 8.678220465641692 1.7973422941048838 -0.18777381432749918 14.216866932251023 3.975107126287432 8.083781568205314 60.80741961856768 22.63504787398586 96.14024496678441 49.50560797911822 0.000012247806578900564 -0.000005918127813557762 26.387325744487892 23.76389821139799 27.364590792619225 -2.1953107924177107 0.6223863342376763 24.094054966383354 -4.689170078148512 1.5428460360740122 42.630859176262724 -0.3673507191198107 -0.1864750723348159 15.193759006319114 -20.61410653628078 7.8372533384574705 50.48182905542156 -5.449334705425384 2.9632024281000877 67.5469339999804 -0.46554492222574473 -0.7713406604860255 23.473937803868647 -9.975094905405498 1.9509430380914836 31.525436913873673 -5.514393850412473 2.3927574641131266 55.430378338122736 -1.8554193287982097 0.2542011582207163 17.24086526951634 -13.882890561961155 5.500488412348482 41.77391591486074 -5.125094843739318 3.571921453451575 62.37010779979557 -0.11455567300416461 -0.1372156567219209 19.165005610444588 -6.344775248433399 19.482715060426596 -14.901216481820608 -29.49458156850488 0.02822318656033632 3.2741731046774465 -15.059443911541631 3.269624090464317 -0.8574372320103937 13.584962375136717 -19.50767065661014 0.595483686950486 9.432646474389383 29.70644171029605 3.656884237902492 2.11688797934195 -10.810458756782793 -1.3599664453411875 5.403921431540588e-11 -0.0001843533960769555 -5.5373811089468974e-11 -2.9562369785220692 -14.156630533978147 -7.07156465731936 -11.268774743353383 25.744891207661315 -11.968033931386302 6.968951330651992 -12.568098115860264 3.182563093937878 0.000003759947567592869 -9.068577841107647 -0.000003849957199186136
1.753117496317083 8.69895501570268 1.25584622917432 -5.168562623630879 0.25750908383404064 -0.7616179471830333 1.1666299333334471 4.537902189524022 -1.3270050684530763 1.447439873572906 3.519375903973838 3.0940155712281854 0 0 0 -2.1054100539629186 -7.0400771636049955 0.8816581574459095 1.662751403897832 32.245324077100605 -1.7985275814528972 0 0 0 0 0 0 -23.856751984050113 2.1878724256151982 -6.902485575036738 -42.45104952946746 33.06656323972991 -100.13546400050541 -55.3564621471727 -0.00004574165654911021 0.00003157814763801556 -8.259754787949916 22.14796275996394 -7.541291002789545 4.666387027632202 0.3377551041203716 -7.816539446024478 2.8351890873564103 0.3890092358426577 -20.54711277056286 0.8092559968905991 0.03451841078151105 -10.169332044968305 16.293314675929143 5.494335996104139 -35.37886347026572 3.9918028097600864 1.5251617812502076 -45.54373943664765 2.832982196229023 0.556861336618206 -20.498787735660734 8.7668994141625 0.9009506054265493 -15.692640100582341 3.9942448035654285 0.9161691130766682 -33.33647876819724 1.4912770091234047 0.1707564361088038 -12.259978367450312 11.684963598964504 2.503227108765868 -26.391617397775 3.88833828950848 1.7071641377487845 -40.09946109583006 1.8351140211636643 0.5448100848179639 -19.32670560477224 0.21222637991376123 18.639550003204512 11.135307962397565 31.896628334663173 0.8128244709772587 -2.731576969162064 8.678211505956503 1.7973318302296912 -0.1877581853326401 14.35156185705832 3.948654193347231 8.12027382037968 61.42760171661945 22.588832210908848 96.43311111752374 49.03462769915455 -0.000011773182734227358 0.00001147243518310192 26.539680178364584 23.85324917047836 27.01487377403961 -2.1953197509901234 0.6223843064056279 24.094053407511463 -4.68917050376079 1.5428364276371689 42.63087114464083 -0.3673469038769668 -0.18646227900258366 15.193751519797349 -20.614117429699466 7.837252476633866 50.48182686182906 -5.449348647023698 2.9632114047256883 67.54692506699527 -0.46553499653532443 -0.7713358575740416 23.473962248135987 -9.975090698630563 1.950940048150581 31.52542751496786 -5.514396402104681 2.3927589595208314 55.43038590670377 -1.8554114354548554 0.2542151122210887 17.240859364793526 -13.882898879170641 5.500484981455956 41.773908511846095 -5.125113588078069 3.5719032754488182 62.370109386656736 -0.1145492296754414 -0.137208292903106 19.16500399752997 -6.344787399524726 19.482711437914816 -14.901205048213146 -29.494602961466345 0.028232591411799693 3.2741848249036583 -15.059438068002246 3.269615111224615 -0.8574513406645501 13.36573826439383 -18.972410272502202 2.0804224801754168 9.348690270061114 28.95912346235808 3.920450742366889 2.3419077906980963 -10.347679478659128 -2.5915911433390155 -0.000004834068166594246 -0.00019629557058702793 -0.000001707604898709578 -4.582402465715114 -13.154213380019394 -6.258222238030276 -10.702357676244262 24.750278853845842 -10.281458043880628 7.611142237810701 -12.793520280480575 3.3861792645607527 0.0000034976986608637595 -9.03695028211616 -0.000008331219264998597
1.6143300316550515 8.717654835094104 1.2774080468636955 -5.606985454134366 0.03568054367448776 -1.338858210547365 1.0742010164248106 4.498066404801338 -0.9512937697606881 1.3873624771455133 3.4952337783719 3.2647457263454536 0 0 0 -1.9036238610014775 -7.266344595708595 0.6416074659524208 2.4101521265803756 31.765998853634375 -3.027134219073641 0 0 0 0 0 0 -23.83164946096536 2.2183625163462555 -6.769779547253542 -42.676293916471664 32.51499321390018 -100.7080896854896 -54.5176782439834 -0.00005613849633003781 0.0000062328262444044826 -8.695702414406544 21.771681567434165 -7.040564102139187 4.666370859422153 0.3377534499051899 -7.816557673458591 2.8352052453115624 0.3890021120046059 -20.547114369519495 0.8092407372065059 0.03452370684712173 -10.169323038394094 16.293302187651395 5.494335996104139 -35.37887105130448 3.991809863616053 1.5251602866168277 -45.54375393014888 2.832976653220737 0.5568656590514393 -20.498769348698332 8.76689350684138 0.9009338480470944 -15.692647600817475 3.994251618035704 0.9161781855815001 -33.336468330580416 1.4912592992417628 0.1707590241216625 -12.25998253898188 11.684966109600373 2.503247191610498 -26.391611285174804 3.888347663560929 1.7071680882053406 -40.09945628167511 1.8351197814405606 0.5448140336995987 -19.326707216166643 0.2122298558636958 18.63956622183 11.135316427082362 31.89662543494654 0.8128125703095629 -2.731593813726841 8.678222998885213 1.797341653459462 -0.18777550935939083 14.490295857300778 3.9191936212294656 8.174164602109924 61.92602482997724 22.778462675907626 96.59624540190973 48.94332855286011 0.000006624031824003038 -0.0000023329145695262806 26.515470349552967 23.808032222994406 27.04726337931957 -2.1953046067366957 0.6224019165260742 24.094056525255205 -4.689148518249548 1.5428396304494452 42.63086883085245 -0.36735506796304834 -0.18648513090886104 15.193748224059595 -20.614111376141896 7.837249891163066 50.48183876124933 -5.4493465193912565 2.963208198787966 67.54692506699527 -0.46553819837094695 -0.7713482384138333 23.47393310474369 -9.975080010465033 1.9509520079142244 31.5254246022248 -5.514364274310697 2.3927365284054334 55.430366015531284 -1.8554193287982097 0.25420433322271174 17.240859364793526 -13.88287808141463 5.5004811217018865 41.77390622620979 -5.12512496994554 3.5719126852384355 62.37011544972165 -0.11456335697381825 -0.13720774595279556 19.165005610444588 -6.344784249241845 19.482706004147296 -14.90120149115636 -29.494587708656667 0.028209526180339797 3.2741664987316423 -15.059458013046813 3.2696258007956973 -0.8574525698275968 13.194144572658319 -18.463585895355884 3.6436713843163804 9.287342504937689 28.172208838594276 4.307380451109593 2.545120208844703 -9.784701056823167 -3.9420583018008104 0.000009186797599693985 -0.00003962623053199519 -0.0000051226573477275205 -5.10650095946767 -12.451207676381545 -5.098288495747619 -10.561199448149619 24.323489647163946 -9.224802835553243 8.381292023102743 -12.802749186202782 2.9805697780037335 0.0000037967536384186926 -9.075706378635793 0.0000012616654853164043
1.468231352892789 8.730946454134854 1.2931641757275503 -5.909263756469392 -0.14899483495499743 -1.9333557645613006 0.7641745833165515 4.46197084055355 -0.5930042922855374 1.1499426359938059 3.4750334880764395 3.4572554463258545 0 0 0 -1.6188705671512538 -7.524509204730565 0.38358926448804215 3.3172030497163214 31.189005003794055 -4.220330418788307 0 0 0 0 0 0 -23.88056826330019 2.219005035795985 -6.731658632060619 -42.786854955794595 32.1178538276111 -101.1595281268585 -54.04050584766991 -0.00004537779376555268 0.000028417497427527133 -8.902268766225383 20.999467763984686 -6.74929618941315 4.666372986818255 0.3377524627122591 -7.816549214902676 2.835197357390264 0.3890043798931236 -20.54710357713076 0.8092548764242885 0.034517263522965705 -10.169321357671611 16.293311382862054 5.494329563247149 -35.37887105130448 3.9917972717325814 1.5251576176286517 -45.543729774313455 2.8329819830363974 0.5568585617227989 -20.498786136160486 8.766892662938348 0.9009484707285254 -15.692636812373808 3.994252043940091 0.9161651638686895 -33.336471184112355 1.4912696477870941 0.17075966445474097 -12.259974305033932 11.684953700979026 2.5032390730136957 -26.39162197933317 3.888334880762084 1.7071543149919775 -40.09945628167511 1.8351163679431448 0.5448179292179707 -19.32669206442941 0.21223709224977977 18.639564419760422 11.135327920014637 31.896628334663173 0.8128220694972276 -2.7315895492801068 8.678211505956503 1.7973435753957279 -0.18777438823593495 14.546767503394271 3.9197045190179787 8.079889468649741 62.132131411679616 23.047802696510644 96.63834027144087 49.225523831632024 0.0000018076282036652412 0.000023604973167901982 26.371550956626795 23.664857804968445 27.8040123670055 -2.1953184711940708 0.622380624289542 24.094053407511463 -4.689153199984588 1.5428492388863027 42.630859176262724 -0.3673421548334223 -0.18647119031220846 15.193744033275976 -20.614112989428868 7.837244720221513 50.48183876124933 -5.449343540705812 2.9632197401638107 67.54693138785744 -0.46553969256090316 -0.7713344700661361 23.47394542983276 -9.975099953535276 1.950942397389861 31.525436913873673 -5.514385016309459 2.3927613094472275 55.43035844695079 -1.8554146354589267 0.2542046267102912 17.240856103116464 -13.882883077419574 5.500481550563449 41.773911070535235 -5.125125395953236 3.571915679262425 62.37007568432585 -0.11456850630070191 -0.13721164130622626 19.16500399752997 -6.344787899277246 19.482698759124222 -14.901200615984123 -29.49458919490976 0.028239431606960238 3.2741584011205376 -15.059434764815954 3.2696170353474017 -0.8574536921068995 13.076335598150726 -18.103123804923474 5.2119022882346915 9.105890081951882 27.459056923682745 4.716447998215233 2.6840261244143226 -9.181970002581531 -5.320522495742716 0.0000032228398760647587 -0.00005156840829889352 -0.0000034151116836683393 -4.9615655464713315 -11.817055873569137 -3.6081640550962475 -10.680909045461327 24.215184159688995 -8.757980295878738 8.53977461761282 -13.06104692719262 1.9691897880669595 -9.099163999096947e-7 -9.112981991237406 -0.000005057986823633124
